<svg width="320" height="320" viewBox="0 0 320 320" fill="none" xmlns="http://www.w3.org/2000/svg">
<rect width="320" height="320" fill="white"/>
<g clip-path="url(#clip0_56_103)">
<path d="M137.367 264.279C180.095 264.279 214.734 258.16 214.734 250.611C214.734 243.063 180.095 236.944 137.367 236.944C94.6383 236.944 60 243.063 60 250.611C60 258.16 94.6383 264.279 137.367 264.279Z" fill="#3F3D56"/>
<path d="M184.389 206.223C226.148 206.223 260 172.37 260 130.611C260 88.8523 226.148 55 184.389 55C142.63 55 108.777 88.8523 108.777 130.611C108.777 172.37 142.63 206.223 184.389 206.223Z" fill="#3F3D56"/>
<path opacity="0.05" d="M184.389 193.031C218.862 193.031 246.808 165.085 246.808 130.611C246.808 96.1379 218.862 68.1917 184.389 68.1917C149.915 68.1917 121.969 96.1379 121.969 130.611C121.969 165.085 149.915 193.031 184.389 193.031Z" fill="black"/>
<path opacity="0.05" d="M184.389 181.77C212.643 181.77 235.547 158.865 235.547 130.611C235.547 102.357 212.643 79.453 184.389 79.453C156.135 79.453 133.23 102.357 133.23 130.611C133.23 158.865 156.135 181.77 184.389 181.77Z" fill="black"/>
<path opacity="0.05" d="M184.389 167.291C204.646 167.291 221.068 150.869 221.068 130.611C221.068 110.354 204.646 93.9318 184.389 93.9318C164.131 93.9318 147.709 110.354 147.709 130.611C147.709 150.869 164.131 167.291 184.389 167.291Z" fill="black"/>
<path d="M109.447 137.378C109.447 137.378 103.503 154.111 106.145 160.055C108.787 166 112.97 171.724 112.97 171.724C112.97 171.724 111.429 138.479 109.447 137.378Z" fill="#D0CDE1"/>
<path opacity="0.1" d="M109.447 137.378C109.447 137.378 103.503 154.111 106.145 160.055C108.787 166 112.97 171.724 112.97 171.724C112.97 171.724 111.429 138.479 109.447 137.378Z" fill="black"/>
<path d="M113.63 176.128C113.63 176.128 113.19 180.311 112.97 180.531C112.75 180.751 113.19 181.192 112.97 181.852C112.75 182.513 112.529 183.393 112.97 183.613C113.41 183.834 110.548 203.209 110.548 203.209C110.548 203.209 103.503 212.456 106.365 226.987L107.245 241.738C107.245 241.738 114.071 242.178 114.071 239.757C114.071 239.757 113.63 236.894 113.63 235.573C113.63 234.252 114.731 234.252 114.071 233.592C113.41 232.931 113.41 232.491 113.41 232.491C113.41 232.491 114.511 231.61 114.291 231.39C114.071 231.17 116.272 215.538 116.272 215.538C116.272 215.538 118.694 213.116 118.694 211.795V210.474C118.694 210.474 119.795 207.612 119.795 207.392C119.795 207.172 125.74 193.741 125.74 193.741L128.161 203.429L130.803 217.299C130.803 217.299 132.124 229.849 134.767 234.693C134.767 234.693 139.39 250.545 139.39 250.105C139.39 249.664 147.096 248.563 146.876 246.582C146.656 244.6 142.252 216.859 142.252 216.859L143.353 175.687L113.63 176.128Z" fill="#2F2E41"/>
<path d="M107.686 240.637C107.686 240.637 101.741 252.306 105.704 252.747C109.667 253.187 111.208 253.187 112.97 251.425C113.933 250.463 115.883 249.171 117.453 248.197C118.383 247.63 119.134 246.812 119.621 245.837C120.108 244.861 120.309 243.769 120.204 242.685C120.087 241.607 119.685 240.72 118.694 240.637C116.052 240.417 112.97 237.995 112.97 237.995L107.686 240.637Z" fill="#2F2E41"/>
<path d="M140.491 249.224C140.491 249.224 134.546 260.893 138.509 261.333C142.472 261.773 144.014 261.773 145.775 260.012C146.738 259.049 148.688 257.757 150.258 256.784C151.188 256.216 151.94 255.398 152.426 254.423C152.913 253.448 153.115 252.356 153.009 251.271C152.893 250.194 152.49 249.306 151.499 249.224C148.857 249.004 145.775 246.582 145.775 246.582L140.491 249.224Z" fill="#2F2E41"/>
<path d="M134.208 118.282C139.32 118.282 143.463 114.138 143.463 109.027C143.463 103.916 139.32 99.7719 134.208 99.7719C129.097 99.7719 124.953 103.916 124.953 109.027C124.953 114.138 129.097 118.282 134.208 118.282Z" fill="#FFB8B8"/>
<path d="M128.258 112.068C128.258 112.068 121.648 124.232 121.119 124.232C120.59 124.232 133.018 128.198 133.018 128.198C133.018 128.198 136.456 116.563 136.985 115.506L128.258 112.068Z" fill="#FFB8B8"/>
<path d="M138.399 125.379C138.399 125.379 125.189 118.113 123.868 118.333C122.547 118.554 108.456 130.883 108.677 135.947C108.897 141.011 110.658 149.377 110.658 149.377C110.658 149.377 111.319 172.715 112.64 172.935C113.961 173.155 112.419 177.118 112.86 177.118C113.3 177.118 143.683 177.118 143.904 176.458C144.124 175.797 138.399 125.379 138.399 125.379Z" fill="#D0CDE1"/>
<path d="M145.775 177.669C145.775 177.669 149.958 190.439 146.435 189.998C142.913 189.558 141.372 178.99 141.372 178.99L145.775 177.669Z" fill="#FFB8B8"/>
<path d="M134.546 124.608C134.546 124.608 126.4 126.37 127.721 137.378C129.042 148.386 131.464 159.395 131.464 159.395L139.61 177.229L140.491 180.531L146.435 178.99L142.032 153.45C142.032 153.45 140.491 126.149 138.509 125.269C137.26 124.736 135.901 124.51 134.546 124.608Z" fill="#D0CDE1"/>
<path opacity="0.1" d="M129.593 159.065L139.72 177.118L131.188 158.095L129.593 159.065Z" fill="black"/>
<path d="M143.422 106.302L143.453 105.595L144.86 105.945C144.845 105.718 144.78 105.497 144.672 105.297C144.563 105.097 144.412 104.923 144.229 104.787L145.728 104.704C144.47 102.917 142.864 101.403 141.005 100.254C139.146 99.1054 137.074 98.3453 134.913 98.0198C131.671 97.55 128.062 98.2298 125.839 100.636C124.761 101.802 124.083 103.286 123.602 104.8C122.714 107.589 122.533 110.912 124.384 113.179C126.265 115.482 129.551 115.934 132.511 116.219C133.552 116.319 134.644 116.412 135.609 116.008C135.717 114.901 135.575 113.784 135.194 112.739C135.036 112.415 134.96 112.057 134.974 111.697C135.106 110.817 136.28 110.595 137.163 110.714C138.045 110.833 139.106 111.015 139.686 110.339C140.086 109.874 140.062 109.196 140.115 108.585C140.259 106.921 143.407 106.651 143.422 106.302Z" fill="#2F2E41"/>
<path d="M200.188 252.492C206.144 252.492 210.972 247.664 210.972 241.708C210.972 235.753 206.144 230.925 200.188 230.925C194.232 230.925 189.404 235.753 189.404 241.708C189.404 247.664 194.232 252.492 200.188 252.492Z" fill="#5F7ADB"/>
<path d="M73.5424 248.73C79.498 248.73 84.3261 243.902 84.3261 237.947C84.3261 231.991 79.498 227.163 73.5424 227.163C67.5867 227.163 62.7587 231.991 62.7587 237.947C62.7587 243.902 67.5867 248.73 73.5424 248.73Z" fill="#5F7ADB"/>
<path d="M73.5424 231.426C77.836 231.426 81.3167 227.946 81.3167 223.652C81.3167 219.358 77.836 215.878 73.5424 215.878C69.2487 215.878 65.7681 219.358 65.7681 223.652C65.7681 227.946 69.2487 231.426 73.5424 231.426Z" fill="#5F7ADB"/>
<path d="M73.5423 217.132C76.5894 217.132 79.0595 214.661 79.0595 211.614C79.0595 208.567 76.5894 206.097 73.5423 206.097C70.4952 206.097 68.025 208.567 68.025 211.614C68.025 214.661 70.4952 217.132 73.5423 217.132Z" fill="#5F7ADB"/>
</g>
<defs>
<clipPath id="clip0_56_103">
<rect width="200" height="209.279" fill="white" transform="translate(60 55)"/>
</clipPath>
</defs>
</svg>
