<svg width="65" height="50" viewBox="0 0 65 50" fill="none" xmlns="http://www.w3.org/2000/svg">
<rect width="65" height="50" rx="10" fill="white"/>
<path d="M61.1216 27.8269C61.378 28.1236 61.4202 28.4109 61.2992 28.7416C61.1623 29.1157 60.8022 29.5693 60.1654 30.0713C58.9009 31.0682 56.7417 32.1034 53.9487 32.9895C48.3765 34.7574 40.4468 35.8799 32.5552 35.0031C24.792 34.1405 18.2299 34.112 13.2924 34.0905C12.4859 34.087 11.7227 34.0837 11.0047 34.077C8.43205 34.0529 6.4811 33.9844 5.17651 33.7226C4.52245 33.5913 4.08871 33.4217 3.82726 33.2277C3.59314 33.0539 3.5 32.8664 3.5 32.6156C3.5 31.0821 4.18102 29.7656 5.48919 28.6307C6.80997 27.4849 8.75969 26.5367 11.2422 25.7858C16.205 24.2847 23.1476 23.6156 31 23.6156C33.1205 23.6156 35.1357 23.5993 37.0472 23.5839C42.2568 23.5419 46.6962 23.5061 50.3964 23.8225C55.4592 24.2554 58.973 25.3397 61.1216 27.8269Z" stroke="black"/>
<path d="M55.5 25C55.5 25.2384 55.3403 25.5383 54.838 25.8762C54.3471 26.2064 53.6258 26.5029 52.7491 26.7497C51.0021 27.2413 48.7663 27.5 46.8696 27.5C45.9112 27.5 45.1473 27.4675 44.5395 27.3919C43.9282 27.3159 43.5053 27.1996 43.212 27.0501C42.9322 26.9076 42.7704 26.7356 42.6683 26.522C42.5592 26.2941 42.5 25.9804 42.5 25.5294C42.5 24.844 43.0633 24.0913 44.2754 23.4802C45.4587 22.8836 47.1284 22.5 49 22.5C50.8972 22.5 52.5777 22.7591 53.7642 23.2333C54.9787 23.7188 55.5 24.3459 55.5 25Z" fill="white" stroke="black"/>
<path d="M37.4998 23.2061C37.2571 25.1683 36.6027 26.3516 35.6962 27.0758C34.7719 27.8142 33.506 28.1406 31.9146 28.2175C30.323 28.2944 28.4814 28.12 26.4487 27.9201C26.396 27.915 26.3432 27.9098 26.2903 27.9046C24.3154 27.7102 22.1796 27.5 20 27.5C17.7671 27.5 15.8315 27.658 14.1754 27.8237C13.7581 27.8655 13.3608 27.9074 12.9824 27.9474C11.8467 28.0673 10.8801 28.1694 10.0459 28.1951C8.92971 28.2294 8.16013 28.1196 7.61862 27.8038C7.11701 27.5113 6.73279 26.9933 6.50055 26.0045C6.51673 25.212 6.887 24.42 7.61828 23.6572C8.36867 22.8745 9.47836 22.1469 10.8881 21.5249C13.7063 20.2816 17.6345 19.5 22 19.5C26.427 19.5 30.3775 19.5858 33.2169 20.1463C34.6385 20.4269 35.7277 20.817 36.4515 21.3354C37.1428 21.8304 37.4913 22.4315 37.4998 23.2061Z" fill="white" stroke="black"/>
<path d="M32.5 18C32.5 18.4293 32.1476 18.9875 31.2603 19.6164C30.4034 20.2238 29.1723 20.8064 27.7172 21.3134C24.8097 22.3263 21.1153 23 18 23C14.8093 23 12.9146 22.8089 11.8194 22.3278C11.2952 22.0975 10.9846 21.8127 10.7941 21.4693C10.5975 21.115 10.5 20.6464 10.5 20C10.5 19.4762 10.7421 18.937 11.2621 18.4024C11.7844 17.8655 12.5646 17.3591 13.5676 16.923C15.5721 16.0515 18.3763 15.5 21.5 15.5C24.6842 15.5 27.5105 15.5612 29.5363 15.9553C30.5513 16.1527 31.3116 16.4245 31.808 16.7748C32.2805 17.1082 32.5 17.4987 32.5 18Z" fill="white" stroke="black"/>
</svg>
